<svg width="59" height="62" viewBox="0 0 59 62" fill="none" xmlns="http://www.w3.org/2000/svg">
<g id="g10">
<g id="g12">
<g id="Clip path group">
<mask id="mask0_1346_962" style="mask-type:luminance" maskUnits="userSpaceOnUse" x="0" y="0" width="59" height="62">
<g id="clipPath18">
<path id="path16" d="M0 0H59V62H0V0Z" fill="white"/>
</g>
</mask>
<g mask="url(#mask0_1346_962)">
<g id="g14">
<g id="g20">
<path id="path22" d="M49.2346 37.8827C49.2346 48.9932 40.2278 58 29.1173 58C18.0068 58 9 48.9932 9 37.8827C9 26.7722 18.0068 4.35387 29.1173 4.35387C40.2278 4.35387 49.2346 26.7722 49.2346 37.8827Z" fill="#D9E021"/>
</g>
<g id="g24">
<path id="path26" d="M49.2346 37.8827C49.2346 48.9932 40.2278 58 29.1173 58C18.0068 58 9 48.9932 9 37.8827C9 26.7722 18.0068 4.35387 29.1173 4.35387C40.2278 4.35387 49.2346 26.7722 49.2346 37.8827Z" stroke="#009245" stroke-width="3" stroke-miterlimit="10"/>
</g>
<g id="g28">
<path id="path30" d="M42.5291 37.8827C42.5291 45.2897 36.5246 51.2942 29.1176 51.2942C21.7106 51.2942 15.7061 45.2897 15.7061 37.8827C15.7061 30.4757 21.7106 24.4712 29.1176 24.4712C36.5246 24.4712 42.5291 30.4757 42.5291 37.8827Z" fill="#F7931E"/>
</g>
</g>
</g>
</g>
</g>
</g>
</svg>
